<mxfile host="app.diagrams.net" modified="2023-11-28T19:39:09.756Z" agent="Mozilla/5.0 (Windows NT 10.0; Win64; x64) AppleWebKit/537.36 (KHTML, like Gecko) Chrome/119.0.0.0 Safari/537.36" etag="q4PjJAwf8IJDERV2uikv" version="22.1.4" type="device">
  <diagram name="Страница — 1" id="xWtcJD3A_HicHJc8SyKI">
    <mxGraphModel dx="1434" dy="790" grid="1" gridSize="10" guides="1" tooltips="1" connect="1" arrows="1" fold="1" page="1" pageScale="1" pageWidth="827" pageHeight="1169" math="0" shadow="0">
      <root>
        <mxCell id="0" />
        <mxCell id="1" parent="0" />
        <mxCell id="Zi4-sCSXu3aYQf0qUOwc-4" value="" style="edgeStyle=orthogonalEdgeStyle;rounded=0;orthogonalLoop=1;jettySize=auto;html=1;" edge="1" parent="1" source="Zi4-sCSXu3aYQf0qUOwc-1" target="Zi4-sCSXu3aYQf0qUOwc-3">
          <mxGeometry relative="1" as="geometry" />
        </mxCell>
        <mxCell id="Zi4-sCSXu3aYQf0qUOwc-1" value="" style="shape=waypoint;sketch=0;fillStyle=solid;size=6;pointerEvents=1;points=[];fillColor=none;resizable=0;rotatable=0;perimeter=centerPerimeter;snapToPoint=1;strokeWidth=8;" vertex="1" parent="1">
          <mxGeometry x="404" y="100" width="20" height="20" as="geometry" />
        </mxCell>
        <mxCell id="Zi4-sCSXu3aYQf0qUOwc-49" value="" style="edgeStyle=orthogonalEdgeStyle;rounded=0;orthogonalLoop=1;jettySize=auto;html=1;entryX=0.5;entryY=0;entryDx=0;entryDy=0;" edge="1" parent="1" source="Zi4-sCSXu3aYQf0qUOwc-3" target="Zi4-sCSXu3aYQf0qUOwc-8">
          <mxGeometry relative="1" as="geometry" />
        </mxCell>
        <mxCell id="Zi4-sCSXu3aYQf0qUOwc-3" value="a := 10&lt;br&gt;D := 9 + 4*a" style="ellipse;whiteSpace=wrap;html=1;strokeWidth=1;" vertex="1" parent="1">
          <mxGeometry x="371" y="150" width="86" height="40" as="geometry" />
        </mxCell>
        <mxCell id="Zi4-sCSXu3aYQf0qUOwc-21" style="edgeStyle=orthogonalEdgeStyle;rounded=0;orthogonalLoop=1;jettySize=auto;html=1;" edge="1" parent="1" source="Zi4-sCSXu3aYQf0qUOwc-8" target="Zi4-sCSXu3aYQf0qUOwc-19">
          <mxGeometry relative="1" as="geometry" />
        </mxCell>
        <mxCell id="Zi4-sCSXu3aYQf0qUOwc-22" style="edgeStyle=orthogonalEdgeStyle;rounded=0;orthogonalLoop=1;jettySize=auto;html=1;entryX=0.5;entryY=0;entryDx=0;entryDy=0;" edge="1" parent="1" source="Zi4-sCSXu3aYQf0qUOwc-8" target="Zi4-sCSXu3aYQf0qUOwc-20">
          <mxGeometry relative="1" as="geometry" />
        </mxCell>
        <mxCell id="Zi4-sCSXu3aYQf0qUOwc-23" style="edgeStyle=orthogonalEdgeStyle;rounded=0;orthogonalLoop=1;jettySize=auto;html=1;" edge="1" parent="1" source="Zi4-sCSXu3aYQf0qUOwc-8" target="Zi4-sCSXu3aYQf0qUOwc-18">
          <mxGeometry relative="1" as="geometry" />
        </mxCell>
        <mxCell id="Zi4-sCSXu3aYQf0qUOwc-8" value="" style="rhombus;whiteSpace=wrap;html=1;" vertex="1" parent="1">
          <mxGeometry x="397.5" y="220" width="33" height="30" as="geometry" />
        </mxCell>
        <mxCell id="Zi4-sCSXu3aYQf0qUOwc-27" style="edgeStyle=orthogonalEdgeStyle;rounded=0;orthogonalLoop=1;jettySize=auto;html=1;" edge="1" parent="1" source="Zi4-sCSXu3aYQf0qUOwc-18">
          <mxGeometry relative="1" as="geometry">
            <mxPoint x="315" y="450" as="targetPoint" />
          </mxGeometry>
        </mxCell>
        <mxCell id="Zi4-sCSXu3aYQf0qUOwc-18" value="&lt;font style=&quot;font-size: 9px;&quot;&gt;x1 := (5 + D**0.5)/2&lt;br&gt;x1 := (5 - D**0.5)/2&lt;br&gt;&lt;/font&gt;" style="ellipse;whiteSpace=wrap;html=1;strokeWidth=1;" vertex="1" parent="1">
          <mxGeometry x="272" y="360" width="88" height="50" as="geometry" />
        </mxCell>
        <mxCell id="Zi4-sCSXu3aYQf0qUOwc-28" style="edgeStyle=orthogonalEdgeStyle;rounded=0;orthogonalLoop=1;jettySize=auto;html=1;" edge="1" parent="1" source="Zi4-sCSXu3aYQf0qUOwc-19">
          <mxGeometry relative="1" as="geometry">
            <mxPoint x="440" y="460" as="targetPoint" />
          </mxGeometry>
        </mxCell>
        <mxCell id="Zi4-sCSXu3aYQf0qUOwc-19" value="x := 5/2" style="ellipse;whiteSpace=wrap;html=1;strokeWidth=1;" vertex="1" parent="1">
          <mxGeometry x="371" y="360" width="86" height="40" as="geometry" />
        </mxCell>
        <mxCell id="Zi4-sCSXu3aYQf0qUOwc-30" style="edgeStyle=orthogonalEdgeStyle;rounded=0;orthogonalLoop=1;jettySize=auto;html=1;" edge="1" parent="1" source="Zi4-sCSXu3aYQf0qUOwc-20">
          <mxGeometry relative="1" as="geometry">
            <mxPoint x="520" y="550" as="targetPoint" />
            <Array as="points">
              <mxPoint x="540" y="550" />
            </Array>
          </mxGeometry>
        </mxCell>
        <mxCell id="Zi4-sCSXu3aYQf0qUOwc-20" value="&lt;font style=&quot;font-size: 10px;&quot;&gt;print &quot;Для а = {a} неравенство не имеет корней&quot;&lt;/font&gt;" style="ellipse;whiteSpace=wrap;html=1;strokeWidth=1;" vertex="1" parent="1">
          <mxGeometry x="470" y="360" width="140" height="60" as="geometry" />
        </mxCell>
        <mxCell id="Zi4-sCSXu3aYQf0qUOwc-32" value="" style="endArrow=none;html=1;rounded=0;" edge="1" parent="1">
          <mxGeometry width="50" height="50" relative="1" as="geometry">
            <mxPoint x="310" y="550" as="sourcePoint" />
            <mxPoint x="523" y="550" as="targetPoint" />
            <Array as="points" />
          </mxGeometry>
        </mxCell>
        <mxCell id="Zi4-sCSXu3aYQf0qUOwc-35" value="" style="endArrow=classic;html=1;rounded=0;" edge="1" parent="1">
          <mxGeometry width="50" height="50" relative="1" as="geometry">
            <mxPoint x="413" y="550" as="sourcePoint" />
            <mxPoint x="413" y="590" as="targetPoint" />
            <Array as="points">
              <mxPoint x="413" y="550" />
            </Array>
          </mxGeometry>
        </mxCell>
        <mxCell id="Zi4-sCSXu3aYQf0qUOwc-38" value="" style="shape=waypoint;sketch=0;fillStyle=solid;size=6;pointerEvents=1;points=[];fillColor=none;resizable=0;rotatable=0;perimeter=centerPerimeter;snapToPoint=1;strokeWidth=8;" vertex="1" parent="1">
          <mxGeometry x="404" y="590" width="20" height="20" as="geometry" />
        </mxCell>
        <mxCell id="Zi4-sCSXu3aYQf0qUOwc-41" value="D &amp;gt; 0" style="text;html=1;strokeColor=none;fillColor=none;align=center;verticalAlign=middle;whiteSpace=wrap;rounded=0;" vertex="1" parent="1">
          <mxGeometry x="313" y="200" width="70" height="30" as="geometry" />
        </mxCell>
        <mxCell id="Zi4-sCSXu3aYQf0qUOwc-42" value="else" style="text;html=1;strokeColor=none;fillColor=none;align=center;verticalAlign=middle;whiteSpace=wrap;rounded=0;" vertex="1" parent="1">
          <mxGeometry x="450" y="200" width="70" height="30" as="geometry" />
        </mxCell>
        <mxCell id="Zi4-sCSXu3aYQf0qUOwc-43" value="D = 0&lt;br&gt;" style="text;html=1;strokeColor=none;fillColor=none;align=center;verticalAlign=middle;whiteSpace=wrap;rounded=0;rotation=-90;" vertex="1" parent="1">
          <mxGeometry x="397.5" y="280" width="66" height="28.5" as="geometry" />
        </mxCell>
        <mxCell id="Zi4-sCSXu3aYQf0qUOwc-51" style="edgeStyle=orthogonalEdgeStyle;rounded=0;orthogonalLoop=1;jettySize=auto;html=1;" edge="1" parent="1" source="Zi4-sCSXu3aYQf0qUOwc-50">
          <mxGeometry relative="1" as="geometry">
            <mxPoint x="316.5" y="550" as="targetPoint" />
          </mxGeometry>
        </mxCell>
        <mxCell id="Zi4-sCSXu3aYQf0qUOwc-50" value="&lt;font style=&quot;font-size: 8px;&quot;&gt;print &quot;Для а = {a} неравенство имеет два корня: х1 = {x1}, х2 = {x2}&lt;br&gt;&quot;&lt;/font&gt;" style="ellipse;whiteSpace=wrap;html=1;strokeWidth=1;" vertex="1" parent="1">
          <mxGeometry x="243" y="450" width="147" height="80" as="geometry" />
        </mxCell>
        <mxCell id="Zi4-sCSXu3aYQf0qUOwc-52" value="&lt;font style=&quot;font-size: 8px;&quot;&gt;print &quot;Для a = {a} неравенство имеет один корень {x}&lt;/font&gt;&quot;" style="ellipse;whiteSpace=wrap;html=1;strokeWidth=1;" vertex="1" parent="1">
          <mxGeometry x="397.5" y="460" width="122.5" height="50" as="geometry" />
        </mxCell>
      </root>
    </mxGraphModel>
  </diagram>
</mxfile>
